<?xml version="1.0" encoding="UTF-8"?>
<svg id="Layer_2" data-name="Layer 2" xmlns="http://www.w3.org/2000/svg" viewBox="0 0 1854.18 511.81" fill="currentColor">
  <defs>
    <style>
      .cls-1 {
        fill: #0086ff;
      }
    </style>
  </defs>
  <g id="Layer_1-2" data-name="Layer 1">
    <g>
      <g>
        <path d="M777.3,311.88v65.5h-219.16v-48.93l82.89-72.38c52.97-46.5,61.46-54.99,61.46-71.98,0-13.75-8.49-29.52-34.37-29.52-23.45,0-34.77,12.94-37.6,38.41h-69.15c2.43-63.89,47.71-103.92,109.99-103.92s100.68,42.86,100.68,91.79c0,44.07-29.52,68.74-74,107.56l-26.28,23.05-.81.4h106.35Z"/>
        <path d="M1151.73,238.28v139.1h-68.74v-123.73c0-24.26-7.28-38.42-33.16-38.42s-38.82,13.34-38.82,44.08v118.07h-68.74v-123.73c0-24.26-7.28-38.42-33.16-38.42s-38.82,13.34-38.82,44.08v118.07h-68.74v-222.4h68.74v25.07c16.17-19.82,36.8-30.33,63.08-30.33,30.33,0,53.78,14.15,66.72,38.82,16.98-24.67,42.86-38.82,73.59-38.82,47.71,0,78.04,34.37,78.04,88.55Z"/>
        <path d="M1408.07,280.74h-162.15c3.24,34.37,25.07,48.93,48.93,48.93,18.6,0,33.96-8.9,39.22-25.07h70.76c-15.37,54.99-61.87,78.04-109.99,78.04-71.17,0-118.88-50.54-118.88-116.46s48.12-116.45,117.26-116.45c73.59,0,121.71,57.82,114.84,131.01ZM1247.95,239.09h88.55c-4.45-21.43-19-36.39-43.67-36.39s-39.22,14.96-44.88,36.39Z"/>
        <path d="M1644.61,238.28v139.1h-68.74v-123.73c0-24.26-7.28-38.42-35.18-38.42s-40.84,13.34-40.84,44.08v118.07h-68.74v-222.4h68.74v25.07c16.17-19.82,36.8-30.33,64.29-30.33,50.14,0,80.47,34.37,80.47,88.55Z"/>
        <path d="M1691.04,367.5c0,6.87-5.36,11.89-12.4,11.89s-12.23-5.03-12.23-11.89,5.19-11.73,12.23-11.73,12.4,4.86,12.4,11.73Z"/>
        <path d="M1788.53,345.89h-50.92l-11.89,31.49h-20.1l45.4-117.26h24.12l45.4,117.26h-20.1l-11.89-31.49ZM1781.66,327.97l-18.59-49.08-18.6,49.08h37.19Z"/>
        <path d="M1835.25,260.12h18.93v117.26h-18.93v-117.26Z"/>
      </g>
      <path class="cls-1" d="M451.85,173.05v-60.13h-57.09L255.71,32.64V0h-60.13v32.64L56.54,112.92H0v60.13h17.27v165.86H0v60.13h56.78l138.8,80.14v32.65h60.13v-32.65l138.8-80.14h57.34v-60.13h-17.82v-165.86h17.82ZM199.17,451.68l-139.04-80.28v-18.79l63.64-76.68,71.82,86.54v46.25h60.13v-46.26l71.81-86.53,64.2,77.36v17.8l-139.59,80.6h-52.96ZM252.13,60.13l139.59,80.6v17.78l-64.2,77.36-71.81-86.53v-46.25h-60.13v46.25l-71.82,86.54-63.64-76.69v-18.77L199.17,60.13h52.96ZM212.85,168.58v174.62l-72.46-87.31,72.46-87.31ZM238.44,343.2v-174.61l72.46,87.31-72.46,87.31ZM107.14,255.89l-64.28,77.46v-154.91l64.28,77.46ZM344.16,255.89l64.28-77.46v154.91l-64.28-77.46Z"/>
    </g>
  </g>
</svg>
